<?xml version="1.0" standalone="no"?><!DOCTYPE svg PUBLIC "-//W3C//DTD SVG 1.1//EN" "http://www.w3.org/Graphics/SVG/1.1/DTD/svg11.dtd"><svg class="icon" height="512" viewBox="0 0 1024 1024" version="1.1" xmlns="http://www.w3.org/2000/svg"><path d="M512 0C229.248 0 0 229.248 0 512s229.248 512 512 512 512-229.248 512-512C1024 229.184 794.752 0 512 0zM766.72 397.056c0.256 5.44 0.384 10.88 0.384 16.32 0 166.592-126.784 358.656-358.656 358.656-71.168 0-137.408-20.864-193.216-56.64 9.856 1.152 19.904 1.792 30.08 1.792 59.072 0 113.408-20.16 156.544-53.952-55.168-1.024-101.696-37.504-117.76-87.552C291.84 577.152 299.648 577.92 307.84 577.92c11.52 0 22.656-1.536 33.216-4.416C283.392 561.92 239.936 510.976 239.936 449.92c0-0.512 0-1.024 0-1.6 17.024 9.472 36.416 15.104 57.088 15.808C263.232 441.536 240.96 402.944 240.96 359.232c0-23.104 6.208-44.736 17.024-63.36 62.144 76.288 155.072 126.464 259.84 131.712C515.648 418.368 514.56 408.704 514.56 398.848c0-69.568 56.448-126.016 126.08-126.016 36.224 0 68.992 15.296 92.032 39.808 28.736-5.696 55.744-16.192 80.064-30.592-9.408 29.44-29.376 54.144-55.424 69.76 25.472-3.008 49.792-9.856 72.384-19.84C812.8 357.184 791.36 379.392 766.72 397.056z" /></svg>